<svg xmlns="http://www.w3.org/2000/svg" viewBox="0 0 264.15 208.14" width="100%" height="60px"><defs><style>.cls-1{fill:#0d3355;}.cls-2{fill:#2f98c5;}</style></defs><g id="Layer_2" data-name="Layer 2"><g id="Layer_1-2" data-name="Layer 1"><path class="cls-1" d="M174.9,208.14H131c-.82-.66-.56-1.51-.36-2.31,1.76-7.17,3.55-14.33,5.31-21.49q1.81-7.32,3.58-14.65c.45-1.85.27-2.07-1.66-2.09h-.24l-36.35.1c-2.35,0-4.71-.07-7.07-.08-3.07,0-4,.71-4.69,3.64-2.7,11.25-5.39,22.5-8.15,33.73a16.73,16.73,0,0,1-1.49,3.15H35.7c-.84-1-.37-2-.12-3q4.29-17.43,8.59-34.86c.49-2,.15-2.41-2-2.38l-8.52.08-18.11.16c-4.6,0-9.2.07-13.8.07-1.69,0-2-.37-1.67-2,.64-3.13,1.31-6.25,2-9.37q3.77-17.5,7.55-35c.53-2.41,1.23-2.93,3.74-2.93H53.72c2.43,0,3.26-.65,3.85-3Q61.91,98,66.25,80.11c.5-2.07.18-2.49-2-2.48-2.52,0-5,.07-7.56.07L25,77.62c-.6,0-1.2,0-1.8,0-1.57-.07-1.87-.43-1.68-2a7.45,7.45,0,0,1,.17-.82Q27.05,53,32.38,31.18c.55-2.24,1.38-2.85,3.73-2.84l39.71.28c2.56,0,3.24-.5,3.83-2.95,1.61-6.68,3.19-13.36,4.85-20C85,3.74,85.71,1.89,86.33,0a2,2,0,0,0,.35,0H131a17.24,17.24,0,0,1-.17,3.06c-1.86,7.76-3.79,15.5-5.7,23.25-.47,1.94,0,2.51,1.95,2.51,4.6,0,9.2-.06,13.79,0a5.47,5.47,0,0,0,4.88-2.46q7.65-10.5,15.4-21c1.23-1.66,2.59-3.24,4-4.79a2.13,2.13,0,0,1,1.44-.62Q195.93,0,225.34,0c.95,0,1.19.43,1.15,1.22a4.88,4.88,0,0,1-.17,1.06q-3,12.32-6.1,24.62c-.51,2-.19,2.39,1.94,2.4h39.35c2.71,0,3,.33,2.35,2.92q-5.28,21.56-10.58,43.12c-.7,2.84-1.42,3.36-4.34,3.32l-13.43-.12c-8.28-.07-16.55-.13-24.83-.23-2.51,0-3.23.47-3.82,2.94q-1.29,5.35-2.59,10.7c-2,8-3.94,16-5.88,24.07-.38,1.56,0,2,1.55,2,4.63,0,9.27-.06,13.91-.07l31.55,0c1.51,0,1.87.41,1.55,1.92-1.43,6.79-2.91,13.57-4.37,20.36q-2.61,12.06-5.24,24.1c-.5,2.25-1.32,2.86-3.58,2.86H219.24c-9.83,0-19.67.07-29.51.07-3.28,0-4.07.54-4.83,3.7q-4.07,16.8-8.12,33.62A6.34,6.34,0,0,1,174.9,208.14ZM135.33,67.94V68q13.44,0,26.88,0c1.72,0,2.37-.5,2.78-2.18.34-1.35.61-2.72.94-4.08q2.49-10.26,5-20.5c.39-1.62,0-2.05-1.59-2.09-3.44-.06-6.87-.19-10.31-.2q-21.72,0-43.44,0c-2.24,0-2.65-.5-2.12-2.66,1-4.12,2-8.23,3-12.34,1-3.92,2-7.83,2.89-11.75.36-1.49,0-2-1.3-2-7.79,0-15.59,0-23.39-.05a2.22,2.22,0,0,0-2.17,1.41,11,11,0,0,0-.62,1.94q-2.64,10.88-5.26,21.78c-.65,2.67-1.46,3.29-4.16,3.29l-39.36-.1c-2.54,0-3.26.53-3.85,3q-2.93,12.1-5.84,24.23c-.39,1.64-.17,1.91,1.49,1.91,9.48,0,19,0,28.44,0,4.31,0,8.63.07,13,.14,1.88,0,2.2.43,1.76,2.26q-3.57,14.67-7.17,29.34-9.36,38.3-18.73,76.59-2.4,9.76-4.82,19.54c-.62,2.53-.3,2.87,2.29,2.87q10.67,0,21.35,0c2.07,0,2.7-.43,3.2-2.46,1.57-6.32,3.11-12.64,4.67-19q8.15-33.1,16.3-66.21,3.6-14.66,7.15-29.34c.85-3.49,1.66-7,2.55-10.48.55-2.14,1.51-2.91,3.51-2.92Zm57-56.87c-6.68,0-13.36,0-20,0a5.44,5.44,0,0,0-4.77,2.45c-3.24,4.41-6.53,8.78-9.77,13.19a1.43,1.43,0,0,0-.24,1.16,1.36,1.36,0,0,0,1.06.49c7.56,0,15.12,0,22.67,0,1.84,0,2.11.38,1.67,2.19q-2.87,11.91-5.76,23.83l-13.32,54.88q-8.48,35-17,70c-1.66,6.86-3.34,13.72-5,20.58-.54,2.25-.25,2.61,2.09,2.61,3.56,0,7.12,0,10.68,0,3.71,0,7.41-.11,11.12-.06,2.51,0,3.23-.42,3.84-2.93q5.69-23.49,11.37-47,8.13-33.48,16.28-66.95,7.66-31.56,15.33-63.12c.76-3.14,1.52-6.28,2.21-9.43.28-1.3-.15-1.76-1.48-1.84-.4,0-.8,0-1.2,0Zm-54.94,67v-.24H115.23c-2.15,0-2.89.53-3.4,2.58q-4.36,17.77-8.69,35.56c-.57,2.35-.4,2.54,2,2.54q14.92-.06,29.85-.12h14.27c2.32,0,3-.56,3.55-2.84q4.14-17,8.32-34.06c.83-3.36.8-3.42-2.65-3.42Zm-19,79.71q11.52,0,23,0c2.52,0,3.09-.42,3.66-2.81q2.89-12.17,5.77-24.33c.58-2.46.49-2.59-2-2.58q-17,0-34.07.1c-4.24,0-8.47.13-12.71.24a2.51,2.51,0,0,0-2.74,2.17c-.4,1.5-.71,3-1.08,4.54-1.67,6.94-3.36,13.88-5,20.82-.33,1.4,0,1.84,1.32,1.84Zm101-.48v.05h7.43c2.17,0,3-.71,3.5-2.82q2.52-11.76,5-23.51c.71-3.3.63-3.38-2.7-3.35q-16.72.14-33.45.24c-3.85,0-4.17.26-5,4q-2.66,11.42-5.31,22.83c-.54,2.31-.2,2.74,2.13,2.72q10.67-.1,21.32-.21C214.71,157.27,217.07,157.29,219.43,157.29ZM29,158.25H44.72c2,0,2.75-.59,3.22-2.5q3.09-12.48,6.16-25c.45-1.86.07-2.35-1.82-2.35q-10.85,0-21.71.09c-3.59,0-7.19,0-10.78,0-1.83,0-2.67.67-3.05,2.41Q14,143.38,11.28,155.83c-.4,1.84.11,2.41,2,2.42ZM227.93,68.42v0h15c2.24,0,2.74-.41,3.27-2.63q1.76-7.28,3.53-14.55c.78-3.22,1.6-6.43,2.38-9.65.4-1.67.09-2.2-1.31-2.2l-31.41-.06c-1.63,0-2.24.46-2.63,2.06q-3,12.32-6.05,24.65c-.44,1.84,0,2.34,1.88,2.34Z"/><path class="cls-2" d="M135.33,67.94h-27c-2,0-3,.78-3.51,2.92-.89,3.49-1.7,7-2.55,10.48Q98.71,96,95.13,110.68q-8.13,33.1-16.3,66.21c-1.56,6.32-3.1,12.64-4.67,19-.5,2-1.13,2.46-3.2,2.46q-10.68,0-21.35,0c-2.59,0-2.91-.34-2.29-2.87q2.4-9.76,4.82-19.54,9.36-38.29,18.73-76.59Q74.46,84.64,78,70c.44-1.83.12-2.23-1.76-2.26-4.32-.07-8.64-.13-13-.14-9.48,0-19,0-28.44,0-1.66,0-1.88-.27-1.49-1.91q2.91-12.12,5.84-24.23c.59-2.45,1.31-3,3.85-3l39.36.1c2.7,0,3.51-.62,4.16-3.29q2.64-10.89,5.26-21.78a11,11,0,0,1,.62-1.94,2.22,2.22,0,0,1,2.17-1.41c7.8,0,15.6,0,23.39.05,1.31,0,1.66.54,1.3,2-.94,3.92-1.92,7.83-2.89,11.75-1,4.11-2,8.22-3,12.34-.53,2.16-.12,2.66,2.12,2.66q21.72,0,43.44,0c3.44,0,6.87.14,10.31.2,1.63,0,2,.47,1.59,2.09q-2.47,10.26-5,20.5c-.33,1.36-.6,2.73-.94,4.08-.41,1.68-1.06,2.18-2.78,2.18q-13.44,0-26.88,0Z"/><path class="cls-2" d="M227.93,68.42H212.58c-1.89,0-2.32-.5-1.88-2.34q3-12.33,6.05-24.65c.39-1.6,1-2.06,2.63-2.06l31.41.06c1.4,0,1.71.53,1.31,2.2-.78,3.22-1.6,6.43-2.38,9.65q-1.77,7.28-3.53,14.55c-.53,2.22-1,2.63-3.27,2.63h-15Z"/></g></g></svg>