<svg xmlns="http://www.w3.org/2000/svg" viewBox="0 0 1175.04 208.8" width="100%" height="80px"><defs><style>.cls-1{fill:#0f3456;}.cls-2{fill:#fefefe;}.cls-3{fill:#fdfefe;}.cls-4{fill:#eaeef0;}.cls-5{fill:#365572;}.cls-6{fill:#365672;}.cls-7{fill:#869aa9;}.cls-8{fill:#bec8d1;}.cls-9{fill:#bfcad2;}.cls-10{fill:#0e3355;}.cls-11{fill:#0d3355;}.cls-12{fill:#0e3455;}.cls-13{fill:#2f98c5;}.cls-14{fill:#fdfdfe;}.cls-15{fill:#fdfdfd;}.cls-16{fill:#fbfcfc;}</style></defs><g id="Layer_2" data-name="Layer 2"><g id="Layer_1-2" data-name="Layer 1"><path class="cls-1" d="M226.54.53c.64.9.33,1.82.09,2.76Q223.81,14.56,221,25.83c-1,4-1,4,3.09,4q18.48,0,37,0c3.75,0,3.88.17,3,3.8q-5.1,20.94-10.22,41.88c-.1.39-.22.77-.34,1.15-.65,2-1.36,2.56-3.49,2.56q-12.6,0-25.19-.09c-4.63,0-9.27-.19-13.9-.28-2.24,0-3,.48-3.54,2.72q-4.26,17.2-8.45,34.43c-.54,2.23-.23,2.58,2.24,2.58l42.94-.07c3.69,0,3.75.06,3,3.57q-4.53,21-9.1,41.9c-.1.47-.24.93-.37,1.39a2.81,2.81,0,0,1-2.93,2.32h-1.2l-43.42.1c-3.23,0-4,.6-4.78,3.79-2.71,11.18-5.44,22.35-8.11,33.53a7.16,7.16,0,0,1-2,3.71H164.64a10.19,10.19,0,0,0-2-.44c-2.15-.07-4.3,0-6.45,0l-24.84.1c-.92-1-.26-2.13,0-3.15q4.24-17.45,8.53-34.88a20.87,20.87,0,0,0,.29-2.08c-1.14-.07-2.06-.16-3-.16l-36.44.1c-2.31,0-4.63-.14-6.94-.07-2.15.06-3,.79-3.61,2.85-.17.53-.29,1.07-.42,1.62-2.61,10.86-5.2,21.72-7.87,32.57a19.26,19.26,0,0,1-1.72,3.58H68.64a14.34,14.34,0,0,0-2.48-.44c-10-.05-20.06-.05-30.1-.07-1-1.15-.13-2.3.13-3.36,2.69-11.16,5.48-22.29,8.24-33.44.68-2.75.44-3.06-2.36-3-8.78.05-17.57.14-26.35.16-5.24,0-10.48-.08-15.72-.13v-1.92a13.05,13.05,0,0,0,1-2.32q4.51-20.6,9-41.19c.73-3.37,1.06-3.61,4.49-3.61h39.1c3.16,0,3.83-.55,4.58-3.67q4.13-17,8.25-34c.84-3.48.79-3.57-2.68-3.57H24.83c-2.91,0-3.26-.44-2.66-3.21,0-.23.14-.46.19-.69q1.79-7.22,3.55-14.42Q29.3,46.05,32.68,32.2c.66-2.69,1.4-3.37,3.86-3.35Q56,29,75.38,29.17c3.54,0,4-.26,4.87-3.8C82,18.23,83.69,11.09,85.47,4A26.25,26.25,0,0,1,86.88.46c1,0,1.91.07,2.87.07l41.72.06a25.87,25.87,0,0,1-.36,3.55c-1.8,7.54-3.68,15.05-5.51,22.58-.53,2.2-.21,2.62,2,2.63,4.55,0,9.12-.06,13.67,0a5.44,5.44,0,0,0,4.89-2.44Q153.45,17,160.82,7c1.66-2.24,3.52-4.33,5.29-6.49ZM171.34,40.1a6.11,6.11,0,0,0-1.15-.29c-3.43-.15-6.86-.37-10.29-.38-14.48,0-29,0-43.43,0-2.71,0-3.14-.54-2.53-3.11.47-2,1-4,1.51-6,1.42-5.82,2.85-11.63,4.23-17.45.42-1.78.11-2.11-1.71-2.18-1.12,0-2.24,0-3.36,0-6.24,0-12.47,0-18.71,0-2,0-2.71.52-3.33,2.4-.17.53-.28,1.08-.41,1.63-1.69,7-3.34,14-5.08,20.93-.75,3-1.38,3.43-4.52,3.43l-38.15-.06H43a3,3,0,0,0-3.12,2.43c-.28,1.08-.51,2.18-.77,3.26Q36.52,55.19,34,65.78c-.51,2.13-.37,2.29,1.88,2.34h1l32.87,0c2.32,0,4.64,0,7,0,1.91,0,2.25.51,1.81,2.38-.77,3.34-1.59,6.67-2.41,10Q67.13,117,58.2,153.34,53,174.51,47.84,195.66c-.67,2.7-.35,3.11,2.4,3.1l12.95,0c2.8,0,5.6,0,8.4,0,1.94,0,2.31-.32,2.92-2.16.15-.46.26-.92.38-1.39Q78.41,180.8,82,166.38q4.22-17.2,8.43-34.41Q97.66,102.33,105,72.7c1-3.88,1.39-4.16,5.41-4.15q25.68,0,51.35,0c2.7,0,3.23-.4,3.84-2.93q2.8-11.51,5.57-23A17.39,17.39,0,0,0,171.34,40.1ZM183.6,28.87c-.21,1.42-.27,2.29-.47,3.12q-4.77,19.8-9.56,39.6-15.47,63.68-30.94,127.34c-1,4-.89,4.08,3.16,4,6.31,0,12.62-.23,18.94-.2,4.62,0,4.6.12,5.7-4.43q7.53-31.09,15.07-62.17Q200,76.57,214.5,17c.26-1.09.52-2.18.69-3.28.23-1.57-.14-2-1.74-2.12-.56-.05-1.12,0-1.68,0-5.76,0-11.52.12-17.28.12q-10.78,0-21.59-.13a5.38,5.38,0,0,0-4.75,2.27c-3.29,4.43-6.58,8.86-9.83,13.31a6.17,6.17,0,0,0-.5,1.68h12.74ZM127.44,119V119h2.88c6.4,0,12.8,0,19.19,0,2.49,0,3.05-.47,3.71-2.84.11-.38.22-.76.32-1.15l7.56-31c.3-1.24.57-2.49.86-3.74.23-1-.17-1.53-1.2-1.57-.4,0-.8,0-1.2,0q-21.72-.16-43.43-.32c-2.76,0-3.29.38-4,3.1q-4.33,17.56-8.6,35.15c-.53,2.18-.34,2.44,1.79,2.45C112.72,119.05,120.08,119,127.44,119Zm24.23,9.74c-1.19-.07-2-.16-2.75-.16-8,0-16,0-24,0q-10.55,0-21.1.21c-3.33.06-3.71.48-4.49,3.75-1.79,7.53-3.62,15-5.4,22.59-.22.89-.28,1.82-.45,3,1.22.06,2.15.13,3.08.13h45.1c2.66,0,3.21-.4,3.82-2.94q2.87-12,5.7-24C151.37,130.66,151.47,129.89,151.67,128.78Zm37.43,29c1.11.09,2,.22,2.81.22q17.61,0,35.23-.1c2.3,0,3.17-.68,3.67-2.94q2.63-12,5.2-24.1c.48-2.26.13-2.67-2.25-2.66q-17.49.1-35,.27c-2.71,0-3.3.53-3.93,3.21q-2.76,11.76-5.47,23.55A22,22,0,0,0,189.1,157.77ZM29.49,158.83H44.12c3.25,0,3.67-.34,4.43-3.44q2.37-9.66,4.75-19.31c.38-1.55.81-3.09,1.17-4.65.47-2,.17-2.36-2-2.43-.56,0-1.12,0-1.68,0l-24.22.14c-2.16,0-4.32-.07-6.48,0-1.8,0-2.38.54-2.91,2.25-.14.46-.26.93-.36,1.4q-1.68,7.73-3.35,15.45c-.6,2.73-1.25,5.45-1.81,8.19-.36,1.76.14,2.32,2,2.42.48,0,1,0,1.44,0ZM235.32,39.89v0H220.7c-2.63,0-3.1.37-3.75,3-.42,1.7-.8,3.41-1.22,5.12-1.46,5.88-2.94,11.75-4.38,17.64-.66,2.73-.24,3.39,2.27,3.4q14.87.06,29.72,0c2.1,0,2.71-.48,3.21-2.5q3-12,5.85-23.93c.52-2.19.06-2.72-2.22-2.73C245.23,39.88,240.27,39.89,235.32,39.89Z"/><path class="cls-2" d="M86.88.46A26.25,26.25,0,0,0,85.47,4c-1.78,7.12-3.49,14.26-5.22,21.4-.85,3.54-1.33,3.84-4.87,3.8Q56,28.95,36.54,28.85c-2.46,0-3.2.66-3.86,3.35Q29.29,46,25.91,59.88,24.15,67.1,22.36,74.3c-.05.23-.14.46-.19.69-.6,2.77-.25,3.21,2.66,3.21H63.69c3.47,0,3.52.09,2.68,3.57q-4.14,17-8.25,34c-.75,3.12-1.42,3.67-4.58,3.67H14.44c-3.43,0-3.76.24-4.49,3.61q-4.48,20.6-9,41.19a13.05,13.05,0,0,1-1,2.32V0H86.88Z"/><path class="cls-2" d="M80.16,208.8a19.26,19.26,0,0,0,1.72-3.58c2.67-10.85,5.26-21.71,7.87-32.57.13-.55.25-1.09.42-1.62.65-2.06,1.46-2.79,3.61-2.85,2.31-.07,4.63.07,6.94.07l36.44-.1c.93,0,1.85.09,3,.16a20.87,20.87,0,0,1-.29,2.08q-4.26,17.45-8.53,34.88c-.25,1-.91,2.1,0,3.15a.41.41,0,0,0,.18.38Z"/><path class="cls-2" d="M0,168.48c5.24.05,10.48.15,15.72.13,8.78,0,17.57-.11,26.35-.16,2.8,0,3,.29,2.36,3-2.76,11.15-5.55,22.28-8.24,33.44-.26,1.06-1.16,2.21-.13,3.36l-.06.51H0Z"/><path class="cls-3" d="M166.11.55c-1.77,2.16-3.63,4.25-5.29,6.49q-7.4,9.9-14.65,19.9a5.44,5.44,0,0,1-4.89,2.44c-4.55-.09-9.12,0-13.67,0-2.22,0-2.54-.43-2-2.63,1.83-7.53,3.71-15,5.51-22.58a25.87,25.87,0,0,0,.36-3.55l.05-.59h34.56Z"/><path class="cls-4" d="M166.11.55l0-.55h60.48l0,.53Z"/><path class="cls-4" d="M131.52,0l-.05.59L89.75.53c-1,0-1.91,0-2.87-.07V0Z"/><path class="cls-5" d="M131.52,208.8a.41.41,0,0,1-.18-.38l24.84-.1c2.15,0,4.3,0,6.45,0a10.19,10.19,0,0,1,2,.44Z"/><path class="cls-6" d="M36,208.8l.06-.51c10,0,20.07,0,30.1.07a14.34,14.34,0,0,1,2.48.44Z"/><path class="cls-7" d="M1175,104.16v7.2a1,1,0,0,1-.39,0v-7.28h.2Z"/><path class="cls-8" d="M1175,104.16l-.19,0h-.2c0-1.75,0-3.51,0-5.27a.91.91,0,0,1,.4,0Z"/><path class="cls-9" d="M1174.65,111.4a1,1,0,0,0,.39,0v5.28l-.2,0h-.21C1174.64,114.91,1174.64,113.15,1174.65,111.4Z"/><path class="cls-10" d="M643.5,58.46H635V30h62.84q8.26,40.59,16.48,81.05l.45,0Q722.55,70.59,730.4,30h63.14V58.47h-8.82v96.92h8.82v28.67H741.29V155.53h9c.52-1.9.63-83.66.19-86.4a1,1,0,0,0-.24,0,.23.23,0,0,0-.18.08,1,1,0,0,0-.21.41q-.22,1.3-.42,2.61c-.9,5.84-1.59,11.73-2.74,17.52q-9.3,46.65-18.78,93.26c0,.23-.12.46-.19.69a3.31,3.31,0,0,1-.21.36H692.92c-.72-3.32-1.45-6.65-2.16-10-5.56-26.25-11.24-52.48-16.57-78.79C672.6,87.44,672,79.43,671,71.51c-.1-.76-.14-1.52-.24-2.68-.74,2-1,80.47-.42,86.66h8.89c.54,1.87.72,24.31.27,28.53H635c-.45-1.67-.58-24.93-.13-28.37h8.63Z"/><path class="cls-10" d="M1039.67,184.08h-35.86Q983,142.71,962,101.11l-.37.14v54.3h12.58v28.5H923.49V155.71H933V58.54h-9c-.5-1.84-.66-24.77-.22-28.52.66,0,1.35-.12,2-.12,14.4,0,28.8,0,43.2,0a3.11,3.11,0,0,1,3.26,2q17.91,35.67,35.91,71.29a54.83,54.83,0,0,0,3.64,6.42V58.52h-11.15V30h49.79V58.46h-10.75Z"/><path class="cls-11" d="M1174.65,111.4c0,1.75,0,3.51,0,5.26a105.92,105.92,0,0,1-6.78,35.13c-3.93,10.18-9.72,19.06-18.44,25.82a49.88,49.88,0,0,1-26,10.14,60,60,0,0,1-24.41-2.26c-13.78-4.32-23.65-13.31-30.51-25.8a89.22,89.22,0,0,1-9.6-29.22,147.75,147.75,0,0,1-1.38-35.15c1.23-15.23,4.94-29.76,13-43a57.92,57.92,0,0,1,16.69-18,47.48,47.48,0,0,1,25.79-8.55c9.64-.33,19,.9,27.76,5.16,11.4,5.55,19.33,14.47,24.76,25.78a88.14,88.14,0,0,1,7.61,25.87c.77,5.37,1.06,10.81,1.57,16.21,0,1.76,0,3.52,0,5.27Zm-46.33,50.32c.5-5.72.28-107.94-.23-109.72h-25.93c-3.92,8.55-8,17-11.92,25.89h18.1v83.83Z"/><path class="cls-10" d="M549,184.11H496.81c-.51-1.69-.69-24.68-.21-28.9h11.09c7.47-32.27,14.9-64.37,22.37-96.67h-6.35c-.53-1.82-.7-24.37-.24-28.48h63.61c4.94,20.61,9.74,41.43,14.64,62.22S611.49,134,616.43,155h11.51v29h-66c-.5-1.68-.7-23.82-.24-28.88H577.2c-1.2-5.17-2.32-10-3.45-14.89h-34c-1.12,4.84-2.24,9.64-3.42,14.73H549ZM556.9,67.24l-.43,0c-1.75,7.7-3.54,15.39-5.24,23.1s-3.63,15.4-5.15,23.18h21.48C564,98,560.44,82.6,556.9,67.24Z"/><path class="cls-11" d="M876.42,59.05h-8.71v-29H916.4c.44,1.68.58,24.93.13,28.37h-8.77V61.2c0,18.72.06,37.44-.07,56.15a131.43,131.43,0,0,1-4.83,36.25,60.29,60.29,0,0,1-5.28,12.83c-7.55,13.4-19,20.71-34.39,21.29-12.73.48-24.39-2.77-34.28-11.15-7.28-6.19-11.83-14.17-14.83-23.12a98.37,98.37,0,0,1-4.74-24.65c-.42-6.22-.56-12.46-.59-18.7-.08-16.15,0-32.31,0-48.47V58.74h-9.23V30.27c1.68-.46,49.54-.58,52.52-.12V58.38h-8.53a7.52,7.52,0,0,0-.19,1.14c0,18.79,0,37.59.15,56.39a82.63,82.63,0,0,0,2.32,19.48,27.55,27.55,0,0,0,3.21,8,11.24,11.24,0,0,0,9.3,5.51,23.9,23.9,0,0,0,3.59,0,11.19,11.19,0,0,0,9.47-6A36.71,36.71,0,0,0,875,130.76,137.84,137.84,0,0,0,876.51,109q0-23.88,0-47.75C876.52,60.62,876.46,60,876.42,59.05Z"/><path class="cls-12" d="M489.69,78.61H461.06V59.23H434.69V89.41H466v29.43H434.69v35.73H461V134.68c1.84-.51,25.31-.65,28.71-.22v49.61H390.09c-.46-1.74-.57-26.39-.1-29.36H400V59.13H389.86V30.06h99.83Z"/><path class="cls-11" d="M310.29,59.2h-14.1v28H272.08c-.47-1.7-.68-51.78-.21-57.11H383V87.18H358.68v-28H345v95.46c4.4,0,8.83,0,13.43,0v29.35H296.86v-29.3h13.43Z"/><path class="cls-13" d="M171.34,40.1a17.39,17.39,0,0,1-.22,2.54q-2.75,11.52-5.57,23c-.61,2.53-1.14,2.93-3.84,2.93q-25.68,0-51.35,0c-4,0-4.45.27-5.41,4.15Q97.66,102.33,90.38,132,86.15,149.18,82,166.38q-3.54,14.42-7.06,28.83c-.12.47-.23.93-.38,1.39-.61,1.84-1,2.15-2.92,2.16-2.8,0-5.6,0-8.4,0l-12.95,0c-2.75,0-3.07-.4-2.4-3.1Q53,174.5,58.2,153.34,67.13,117,76,80.58c.82-3.34,1.64-6.67,2.41-10,.44-1.87.1-2.33-1.81-2.38-2.32-.07-4.64,0-7,0l-32.87,0h-1c-2.25-.05-2.39-.21-1.88-2.34Q36.5,55.19,39.08,44.6c.26-1.08.49-2.18.77-3.26A3,3,0,0,1,43,38.91h1.44L82.56,39c3.14,0,3.77-.41,4.52-3.43,1.74-7,3.39-13.95,5.08-20.93.13-.55.24-1.1.41-1.63.62-1.88,1.29-2.4,3.33-2.4,6.24,0,12.47,0,18.71,0,1.12,0,2.24,0,3.36,0,1.82.07,2.13.4,1.71,2.18-1.38,5.82-2.81,11.63-4.23,17.45-.49,2-1,4-1.51,6-.61,2.57-.18,3.11,2.53,3.11,14.48,0,28.95,0,43.43,0,3.43,0,6.86.23,10.29.38A6.11,6.11,0,0,1,171.34,40.1Z"/><path class="cls-3" d="M183.6,28.87l-13-.05H157.82a6.17,6.17,0,0,1,.5-1.68c3.25-4.45,6.54-8.88,9.83-13.31a5.38,5.38,0,0,1,4.75-2.27q10.8.12,21.59.13c5.76,0,11.52-.08,17.28-.12.56,0,1.12,0,1.68,0,1.6.13,2,.55,1.74,2.12-.17,1.1-.43,2.19-.69,3.28q-14.5,59.6-29,119.19-7.55,31.08-15.07,62.17c-1.1,4.55-1.08,4.44-5.7,4.43-6.32,0-12.63.15-18.94.2-4,0-4.13-.08-3.16-4q15.47-63.68,30.94-127.34,4.8-19.8,9.56-39.6C183.33,31.16,183.39,30.29,183.6,28.87Z"/><path class="cls-3" d="M127.44,119c-7.36,0-14.72,0-22.08,0-2.13,0-2.32-.27-1.79-2.45q4.28-17.58,8.6-35.15c.67-2.72,1.2-3.12,4-3.1q21.72.14,43.43.32c.4,0,.8,0,1.2,0,1,0,1.43.57,1.2,1.57-.29,1.25-.56,2.5-.86,3.74l-7.56,31c-.1.39-.21.77-.32,1.15-.66,2.37-1.22,2.83-3.71,2.84-6.39,0-12.79,0-19.19,0h-2.88Z"/><path class="cls-14" d="M151.67,128.78c-.2,1.11-.3,1.88-.48,2.63q-2.83,12-5.7,24c-.61,2.54-1.16,2.94-3.82,2.94H96.57c-.93,0-1.86-.07-3.08-.13.17-1.21.23-2.14.45-3,1.78-7.54,3.61-15.06,5.4-22.59.78-3.27,1.16-3.69,4.49-3.75q10.55-.18,21.1-.21c8,0,16,0,24,0C149.7,128.62,150.48,128.71,151.67,128.78Z"/><path class="cls-14" d="M189.1,157.77a22,22,0,0,1,.27-2.55q2.7-11.78,5.47-23.55c.63-2.68,1.22-3.18,3.93-3.21q17.49-.17,35-.27c2.38,0,2.73.4,2.25,2.66q-2.58,12.06-5.2,24.1c-.5,2.26-1.37,2.93-3.67,2.94q-17.61.06-35.23.1C191.06,158,190.21,157.86,189.1,157.77Z"/><path class="cls-15" d="M29.49,158.83H15.09c-.48,0-1,0-1.44,0-1.81-.1-2.31-.66-2-2.42.56-2.74,1.21-5.46,1.81-8.19q1.68-7.72,3.35-15.45c.1-.47.22-.94.36-1.4.53-1.71,1.11-2.21,2.91-2.25,2.16,0,4.32,0,6.48,0L50.83,129c.56,0,1.12,0,1.68,0,2.13.07,2.43.41,2,2.43-.36,1.56-.79,3.1-1.17,4.65q-2.38,9.66-4.75,19.31c-.76,3.1-1.18,3.43-4.43,3.44Z"/><path class="cls-13" d="M235.32,39.89c5,0,9.91,0,14.86,0,2.28,0,2.74.54,2.22,2.73q-2.86,12-5.85,23.93c-.5,2-1.11,2.49-3.21,2.5q-14.85,0-29.72,0c-2.51,0-2.93-.67-2.27-3.4,1.44-5.89,2.92-11.76,4.38-17.64.42-1.71.8-3.42,1.22-5.12.65-2.63,1.12-3,3.75-3h14.62Z"/><path class="cls-2" d="M1128.32,161.72h-20V77.89h-18.1c3.94-8.91,8-17.34,11.92-25.89h25.93C1128.6,53.78,1128.82,156,1128.32,161.72Z"/><path class="cls-16" d="M556.9,67.24C560.44,82.6,564,98,567.56,113.54H546.08c1.52-7.78,3.45-15.46,5.15-23.18s3.49-15.4,5.24-23.1Z"/></g></g></svg>